<mxfile host="Electron" modified="2024-02-02T09:08:09.976Z" agent="Mozilla/5.0 (Windows NT 10.0; Win64; x64) AppleWebKit/537.36 (KHTML, like Gecko) draw.io/23.0.2 Chrome/120.0.6099.109 Electron/28.1.0 Safari/537.36" etag="isHYm8d4h2oaej381v4h" version="23.0.2" type="device">
  <diagram name="Page-1" id="AocUeiSzO9Z60rHknjjx">
    <mxGraphModel dx="9651" dy="6558" grid="1" gridSize="10" guides="1" tooltips="1" connect="1" arrows="1" fold="1" page="1" pageScale="1" pageWidth="827" pageHeight="1169" math="0" shadow="0">
      <root>
        <mxCell id="0" />
        <mxCell id="1" parent="0" />
        <mxCell id="HOkc9EGTzNKBXb7nj3Id-121" value="" style="rounded=0;whiteSpace=wrap;html=1;" vertex="1" parent="1">
          <mxGeometry x="-2030" y="-1330" width="3530" height="2650" as="geometry" />
        </mxCell>
        <mxCell id="HOkc9EGTzNKBXb7nj3Id-3" value="" style="group" vertex="1" connectable="0" parent="1">
          <mxGeometry x="-1020" y="230" width="640" height="490" as="geometry" />
        </mxCell>
        <mxCell id="HOkc9EGTzNKBXb7nj3Id-1" value="Login &amp;amp; Registrierung fÃ¼r Firmen&lt;br&gt;inkl. Gastfunktion" style="rounded=0;whiteSpace=wrap;html=1;horizontal=1;verticalAlign=top;" vertex="1" parent="HOkc9EGTzNKBXb7nj3Id-3">
          <mxGeometry y="50" width="640" height="440" as="geometry" />
        </mxCell>
        <mxCell id="HOkc9EGTzNKBXb7nj3Id-2" value="&lt;font style=&quot;font-size: 18px;&quot;&gt;Ansicht 1: Perspektive sich anmeldender Firmen&lt;/font&gt;" style="text;html=1;strokeColor=none;fillColor=none;align=center;verticalAlign=middle;whiteSpace=wrap;rounded=0;fontStyle=1" vertex="1" parent="HOkc9EGTzNKBXb7nj3Id-3">
          <mxGeometry width="640" height="50" as="geometry" />
        </mxCell>
        <mxCell id="HOkc9EGTzNKBXb7nj3Id-105" value="Am Marketplace GSO anmelden" style="rounded=1;whiteSpace=wrap;html=1;" vertex="1" parent="HOkc9EGTzNKBXb7nj3Id-3">
          <mxGeometry x="240" y="240" width="180" height="60" as="geometry" />
        </mxCell>
        <mxCell id="HOkc9EGTzNKBXb7nj3Id-104" value="Accountinformationen einsehen und bearbeiten" style="rounded=1;whiteSpace=wrap;html=1;" vertex="1" parent="HOkc9EGTzNKBXb7nj3Id-3">
          <mxGeometry x="240" y="170" width="180" height="60" as="geometry" />
        </mxCell>
        <mxCell id="HOkc9EGTzNKBXb7nj3Id-8" value="" style="group" vertex="1" connectable="0" parent="1">
          <mxGeometry x="120" y="-1190.0000000000002" width="640" height="490" as="geometry" />
        </mxCell>
        <mxCell id="HOkc9EGTzNKBXb7nj3Id-9" value="" style="rounded=0;whiteSpace=wrap;html=1;" vertex="1" parent="HOkc9EGTzNKBXb7nj3Id-8">
          <mxGeometry y="50" width="640" height="440" as="geometry" />
        </mxCell>
        <mxCell id="HOkc9EGTzNKBXb7nj3Id-10" value="&lt;span style=&quot;font-size: 18px;&quot;&gt;Startseite&lt;/span&gt;" style="text;html=1;strokeColor=none;fillColor=none;align=center;verticalAlign=middle;whiteSpace=wrap;rounded=0;fontStyle=1" vertex="1" parent="HOkc9EGTzNKBXb7nj3Id-8">
          <mxGeometry width="640" height="50" as="geometry" />
        </mxCell>
        <mxCell id="HOkc9EGTzNKBXb7nj3Id-79" value="Anmelden" style="rounded=1;whiteSpace=wrap;html=1;" vertex="1" parent="HOkc9EGTzNKBXb7nj3Id-8">
          <mxGeometry x="250" y="230.00000000000023" width="140" height="60" as="geometry" />
        </mxCell>
        <mxCell id="HOkc9EGTzNKBXb7nj3Id-80" value="Registrieren" style="rounded=1;whiteSpace=wrap;html=1;" vertex="1" parent="HOkc9EGTzNKBXb7nj3Id-8">
          <mxGeometry x="250" y="300.0000000000002" width="140" height="60" as="geometry" />
        </mxCell>
        <mxCell id="HOkc9EGTzNKBXb7nj3Id-99" value="Als Gast am Marketplace GSO teilnehmen" style="rounded=1;whiteSpace=wrap;html=1;" vertex="1" parent="HOkc9EGTzNKBXb7nj3Id-8">
          <mxGeometry x="250" y="160.00000000000023" width="140" height="60" as="geometry" />
        </mxCell>
        <mxCell id="HOkc9EGTzNKBXb7nj3Id-81" value="" style="group" vertex="1" connectable="0" parent="1">
          <mxGeometry x="550" y="-570.0000000000002" width="640" height="490" as="geometry" />
        </mxCell>
        <mxCell id="HOkc9EGTzNKBXb7nj3Id-82" value="Hier registrieren sich Firmen einen Account um sich damit anzumelden" style="rounded=0;whiteSpace=wrap;html=1;" vertex="1" parent="HOkc9EGTzNKBXb7nj3Id-81">
          <mxGeometry y="50" width="640" height="440" as="geometry" />
        </mxCell>
        <mxCell id="HOkc9EGTzNKBXb7nj3Id-83" value="&lt;span style=&quot;font-size: 18px;&quot;&gt;Registrierung&lt;/span&gt;" style="text;html=1;strokeColor=none;fillColor=none;align=center;verticalAlign=middle;whiteSpace=wrap;rounded=0;fontStyle=1" vertex="1" parent="HOkc9EGTzNKBXb7nj3Id-81">
          <mxGeometry width="640" height="50" as="geometry" />
        </mxCell>
        <mxCell id="HOkc9EGTzNKBXb7nj3Id-85" style="edgeStyle=orthogonalEdgeStyle;rounded=0;orthogonalLoop=1;jettySize=auto;html=1;exitX=1;exitY=0.5;exitDx=0;exitDy=0;entryX=0;entryY=0.5;entryDx=0;entryDy=0;" edge="1" parent="1" source="HOkc9EGTzNKBXb7nj3Id-80" target="HOkc9EGTzNKBXb7nj3Id-82">
          <mxGeometry relative="1" as="geometry" />
        </mxCell>
        <mxCell id="HOkc9EGTzNKBXb7nj3Id-86" value="" style="group" vertex="1" connectable="0" parent="1">
          <mxGeometry x="-150" y="229.99999999999977" width="640" height="490" as="geometry" />
        </mxCell>
        <mxCell id="HOkc9EGTzNKBXb7nj3Id-4" value="" style="group;align=center;labelPosition=center;verticalLabelPosition=top;verticalAlign=bottom;" vertex="1" connectable="0" parent="HOkc9EGTzNKBXb7nj3Id-86">
          <mxGeometry width="640" height="490" as="geometry" />
        </mxCell>
        <mxCell id="HOkc9EGTzNKBXb7nj3Id-5" value="Tabellarische Auflistung aller Anmeldungen zum Marketplace GSO.&lt;br&gt;Das Organisationsteam verwaltet hier die Anmeldungen, versendet Absagen und Annahmen und generiert&lt;br&gt;PDF-Exporte aus dieser Tabelle." style="rounded=0;whiteSpace=wrap;html=1;labelPosition=center;verticalLabelPosition=middle;align=center;verticalAlign=top;horizontal=1;" vertex="1" parent="HOkc9EGTzNKBXb7nj3Id-4">
          <mxGeometry y="50" width="640" height="440" as="geometry" />
        </mxCell>
        <mxCell id="HOkc9EGTzNKBXb7nj3Id-6" value="&lt;font style=&quot;font-size: 18px;&quot;&gt;Ansicht 2: Perspektive des Organisationsteams&lt;br&gt;&lt;/font&gt;" style="text;html=1;strokeColor=none;fillColor=none;align=center;verticalAlign=middle;whiteSpace=wrap;rounded=0;fontStyle=1" vertex="1" parent="HOkc9EGTzNKBXb7nj3Id-4">
          <mxGeometry width="640" height="50" as="geometry" />
        </mxCell>
        <mxCell id="HOkc9EGTzNKBXb7nj3Id-14" value="" style="shape=table;startSize=0;container=1;collapsible=0;childLayout=tableLayout;fontSize=16;" vertex="1" parent="HOkc9EGTzNKBXb7nj3Id-4">
          <mxGeometry x="30" y="120" width="570" height="100" as="geometry" />
        </mxCell>
        <mxCell id="HOkc9EGTzNKBXb7nj3Id-15" value="" style="shape=tableRow;horizontal=0;startSize=0;swimlaneHead=0;swimlaneBody=0;strokeColor=inherit;top=0;left=0;bottom=0;right=0;collapsible=0;dropTarget=0;fillColor=none;points=[[0,0.5],[1,0.5]];portConstraint=eastwest;fontSize=16;" vertex="1" parent="HOkc9EGTzNKBXb7nj3Id-14">
          <mxGeometry width="570" height="17" as="geometry" />
        </mxCell>
        <mxCell id="HOkc9EGTzNKBXb7nj3Id-16" value="" style="shape=partialRectangle;html=1;whiteSpace=wrap;connectable=0;strokeColor=inherit;overflow=hidden;fillColor=none;top=0;left=0;bottom=0;right=0;pointerEvents=1;fontSize=16;" vertex="1" parent="HOkc9EGTzNKBXb7nj3Id-15">
          <mxGeometry width="190" height="17" as="geometry">
            <mxRectangle width="190" height="17" as="alternateBounds" />
          </mxGeometry>
        </mxCell>
        <mxCell id="HOkc9EGTzNKBXb7nj3Id-17" value="" style="shape=partialRectangle;html=1;whiteSpace=wrap;connectable=0;strokeColor=inherit;overflow=hidden;fillColor=none;top=0;left=0;bottom=0;right=0;pointerEvents=1;fontSize=16;" vertex="1" parent="HOkc9EGTzNKBXb7nj3Id-15">
          <mxGeometry x="190" width="190" height="17" as="geometry">
            <mxRectangle width="190" height="17" as="alternateBounds" />
          </mxGeometry>
        </mxCell>
        <mxCell id="HOkc9EGTzNKBXb7nj3Id-18" value="" style="shape=partialRectangle;html=1;whiteSpace=wrap;connectable=0;strokeColor=inherit;overflow=hidden;fillColor=none;top=0;left=0;bottom=0;right=0;pointerEvents=1;fontSize=16;" vertex="1" parent="HOkc9EGTzNKBXb7nj3Id-15">
          <mxGeometry x="380" width="190" height="17" as="geometry">
            <mxRectangle width="190" height="17" as="alternateBounds" />
          </mxGeometry>
        </mxCell>
        <mxCell id="HOkc9EGTzNKBXb7nj3Id-19" value="" style="shape=tableRow;horizontal=0;startSize=0;swimlaneHead=0;swimlaneBody=0;strokeColor=inherit;top=0;left=0;bottom=0;right=0;collapsible=0;dropTarget=0;fillColor=none;points=[[0,0.5],[1,0.5]];portConstraint=eastwest;fontSize=16;" vertex="1" parent="HOkc9EGTzNKBXb7nj3Id-14">
          <mxGeometry y="17" width="570" height="16" as="geometry" />
        </mxCell>
        <mxCell id="HOkc9EGTzNKBXb7nj3Id-20" value="" style="shape=partialRectangle;html=1;whiteSpace=wrap;connectable=0;strokeColor=inherit;overflow=hidden;fillColor=none;top=0;left=0;bottom=0;right=0;pointerEvents=1;fontSize=16;" vertex="1" parent="HOkc9EGTzNKBXb7nj3Id-19">
          <mxGeometry width="190" height="16" as="geometry">
            <mxRectangle width="190" height="16" as="alternateBounds" />
          </mxGeometry>
        </mxCell>
        <mxCell id="HOkc9EGTzNKBXb7nj3Id-21" value="" style="shape=partialRectangle;html=1;whiteSpace=wrap;connectable=0;strokeColor=inherit;overflow=hidden;fillColor=none;top=0;left=0;bottom=0;right=0;pointerEvents=1;fontSize=16;" vertex="1" parent="HOkc9EGTzNKBXb7nj3Id-19">
          <mxGeometry x="190" width="190" height="16" as="geometry">
            <mxRectangle width="190" height="16" as="alternateBounds" />
          </mxGeometry>
        </mxCell>
        <mxCell id="HOkc9EGTzNKBXb7nj3Id-22" value="" style="shape=partialRectangle;html=1;whiteSpace=wrap;connectable=0;strokeColor=inherit;overflow=hidden;fillColor=none;top=0;left=0;bottom=0;right=0;pointerEvents=1;fontSize=16;" vertex="1" parent="HOkc9EGTzNKBXb7nj3Id-19">
          <mxGeometry x="380" width="190" height="16" as="geometry">
            <mxRectangle width="190" height="16" as="alternateBounds" />
          </mxGeometry>
        </mxCell>
        <mxCell id="HOkc9EGTzNKBXb7nj3Id-23" value="" style="shape=tableRow;horizontal=0;startSize=0;swimlaneHead=0;swimlaneBody=0;strokeColor=inherit;top=0;left=0;bottom=0;right=0;collapsible=0;dropTarget=0;fillColor=none;points=[[0,0.5],[1,0.5]];portConstraint=eastwest;fontSize=16;" vertex="1" parent="HOkc9EGTzNKBXb7nj3Id-14">
          <mxGeometry y="33" width="570" height="17" as="geometry" />
        </mxCell>
        <mxCell id="HOkc9EGTzNKBXb7nj3Id-24" value="" style="shape=partialRectangle;html=1;whiteSpace=wrap;connectable=0;strokeColor=inherit;overflow=hidden;fillColor=none;top=0;left=0;bottom=0;right=0;pointerEvents=1;fontSize=16;" vertex="1" parent="HOkc9EGTzNKBXb7nj3Id-23">
          <mxGeometry width="190" height="17" as="geometry">
            <mxRectangle width="190" height="17" as="alternateBounds" />
          </mxGeometry>
        </mxCell>
        <mxCell id="HOkc9EGTzNKBXb7nj3Id-25" value="" style="shape=partialRectangle;html=1;whiteSpace=wrap;connectable=0;strokeColor=inherit;overflow=hidden;fillColor=none;top=0;left=0;bottom=0;right=0;pointerEvents=1;fontSize=16;" vertex="1" parent="HOkc9EGTzNKBXb7nj3Id-23">
          <mxGeometry x="190" width="190" height="17" as="geometry">
            <mxRectangle width="190" height="17" as="alternateBounds" />
          </mxGeometry>
        </mxCell>
        <mxCell id="HOkc9EGTzNKBXb7nj3Id-26" value="" style="shape=partialRectangle;html=1;whiteSpace=wrap;connectable=0;strokeColor=inherit;overflow=hidden;fillColor=none;top=0;left=0;bottom=0;right=0;pointerEvents=1;fontSize=16;" vertex="1" parent="HOkc9EGTzNKBXb7nj3Id-23">
          <mxGeometry x="380" width="190" height="17" as="geometry">
            <mxRectangle width="190" height="17" as="alternateBounds" />
          </mxGeometry>
        </mxCell>
        <mxCell id="HOkc9EGTzNKBXb7nj3Id-28" value="" style="shape=tableRow;horizontal=0;startSize=0;swimlaneHead=0;swimlaneBody=0;strokeColor=inherit;top=0;left=0;bottom=0;right=0;collapsible=0;dropTarget=0;fillColor=none;points=[[0,0.5],[1,0.5]];portConstraint=eastwest;fontSize=16;" vertex="1" parent="HOkc9EGTzNKBXb7nj3Id-14">
          <mxGeometry y="50" width="570" height="17" as="geometry" />
        </mxCell>
        <mxCell id="HOkc9EGTzNKBXb7nj3Id-29" value="" style="shape=partialRectangle;html=1;whiteSpace=wrap;connectable=0;strokeColor=inherit;overflow=hidden;fillColor=none;top=0;left=0;bottom=0;right=0;pointerEvents=1;fontSize=16;" vertex="1" parent="HOkc9EGTzNKBXb7nj3Id-28">
          <mxGeometry width="190" height="17" as="geometry">
            <mxRectangle width="190" height="17" as="alternateBounds" />
          </mxGeometry>
        </mxCell>
        <mxCell id="HOkc9EGTzNKBXb7nj3Id-30" value="" style="shape=partialRectangle;html=1;whiteSpace=wrap;connectable=0;strokeColor=inherit;overflow=hidden;fillColor=none;top=0;left=0;bottom=0;right=0;pointerEvents=1;fontSize=16;" vertex="1" parent="HOkc9EGTzNKBXb7nj3Id-28">
          <mxGeometry x="190" width="190" height="17" as="geometry">
            <mxRectangle width="190" height="17" as="alternateBounds" />
          </mxGeometry>
        </mxCell>
        <mxCell id="HOkc9EGTzNKBXb7nj3Id-31" value="" style="shape=partialRectangle;html=1;whiteSpace=wrap;connectable=0;strokeColor=inherit;overflow=hidden;fillColor=none;top=0;left=0;bottom=0;right=0;pointerEvents=1;fontSize=16;" vertex="1" parent="HOkc9EGTzNKBXb7nj3Id-28">
          <mxGeometry x="380" width="190" height="17" as="geometry">
            <mxRectangle width="190" height="17" as="alternateBounds" />
          </mxGeometry>
        </mxCell>
        <mxCell id="HOkc9EGTzNKBXb7nj3Id-32" value="" style="shape=tableRow;horizontal=0;startSize=0;swimlaneHead=0;swimlaneBody=0;strokeColor=inherit;top=0;left=0;bottom=0;right=0;collapsible=0;dropTarget=0;fillColor=none;points=[[0,0.5],[1,0.5]];portConstraint=eastwest;fontSize=16;" vertex="1" parent="HOkc9EGTzNKBXb7nj3Id-14">
          <mxGeometry y="67" width="570" height="16" as="geometry" />
        </mxCell>
        <mxCell id="HOkc9EGTzNKBXb7nj3Id-33" value="" style="shape=partialRectangle;html=1;whiteSpace=wrap;connectable=0;strokeColor=inherit;overflow=hidden;fillColor=none;top=0;left=0;bottom=0;right=0;pointerEvents=1;fontSize=16;" vertex="1" parent="HOkc9EGTzNKBXb7nj3Id-32">
          <mxGeometry width="190" height="16" as="geometry">
            <mxRectangle width="190" height="16" as="alternateBounds" />
          </mxGeometry>
        </mxCell>
        <mxCell id="HOkc9EGTzNKBXb7nj3Id-34" value="" style="shape=partialRectangle;html=1;whiteSpace=wrap;connectable=0;strokeColor=inherit;overflow=hidden;fillColor=none;top=0;left=0;bottom=0;right=0;pointerEvents=1;fontSize=16;" vertex="1" parent="HOkc9EGTzNKBXb7nj3Id-32">
          <mxGeometry x="190" width="190" height="16" as="geometry">
            <mxRectangle width="190" height="16" as="alternateBounds" />
          </mxGeometry>
        </mxCell>
        <mxCell id="HOkc9EGTzNKBXb7nj3Id-35" value="" style="shape=partialRectangle;html=1;whiteSpace=wrap;connectable=0;strokeColor=inherit;overflow=hidden;fillColor=none;top=0;left=0;bottom=0;right=0;pointerEvents=1;fontSize=16;" vertex="1" parent="HOkc9EGTzNKBXb7nj3Id-32">
          <mxGeometry x="380" width="190" height="16" as="geometry">
            <mxRectangle width="190" height="16" as="alternateBounds" />
          </mxGeometry>
        </mxCell>
        <mxCell id="HOkc9EGTzNKBXb7nj3Id-36" value="" style="shape=tableRow;horizontal=0;startSize=0;swimlaneHead=0;swimlaneBody=0;strokeColor=inherit;top=0;left=0;bottom=0;right=0;collapsible=0;dropTarget=0;fillColor=none;points=[[0,0.5],[1,0.5]];portConstraint=eastwest;fontSize=16;" vertex="1" parent="HOkc9EGTzNKBXb7nj3Id-14">
          <mxGeometry y="83" width="570" height="17" as="geometry" />
        </mxCell>
        <mxCell id="HOkc9EGTzNKBXb7nj3Id-37" value="" style="shape=partialRectangle;html=1;whiteSpace=wrap;connectable=0;strokeColor=inherit;overflow=hidden;fillColor=none;top=0;left=0;bottom=0;right=0;pointerEvents=1;fontSize=16;" vertex="1" parent="HOkc9EGTzNKBXb7nj3Id-36">
          <mxGeometry width="190" height="17" as="geometry">
            <mxRectangle width="190" height="17" as="alternateBounds" />
          </mxGeometry>
        </mxCell>
        <mxCell id="HOkc9EGTzNKBXb7nj3Id-38" value="" style="shape=partialRectangle;html=1;whiteSpace=wrap;connectable=0;strokeColor=inherit;overflow=hidden;fillColor=none;top=0;left=0;bottom=0;right=0;pointerEvents=1;fontSize=16;" vertex="1" parent="HOkc9EGTzNKBXb7nj3Id-36">
          <mxGeometry x="190" width="190" height="17" as="geometry">
            <mxRectangle width="190" height="17" as="alternateBounds" />
          </mxGeometry>
        </mxCell>
        <mxCell id="HOkc9EGTzNKBXb7nj3Id-39" value="" style="shape=partialRectangle;html=1;whiteSpace=wrap;connectable=0;strokeColor=inherit;overflow=hidden;fillColor=none;top=0;left=0;bottom=0;right=0;pointerEvents=1;fontSize=16;" vertex="1" parent="HOkc9EGTzNKBXb7nj3Id-36">
          <mxGeometry x="380" width="190" height="17" as="geometry">
            <mxRectangle width="190" height="17" as="alternateBounds" />
          </mxGeometry>
        </mxCell>
        <mxCell id="HOkc9EGTzNKBXb7nj3Id-40" value="" style="shape=table;startSize=0;container=1;collapsible=0;childLayout=tableLayout;fontSize=16;" vertex="1" parent="HOkc9EGTzNKBXb7nj3Id-86">
          <mxGeometry x="30" y="220" width="570" height="100" as="geometry" />
        </mxCell>
        <mxCell id="HOkc9EGTzNKBXb7nj3Id-41" value="" style="shape=tableRow;horizontal=0;startSize=0;swimlaneHead=0;swimlaneBody=0;strokeColor=inherit;top=0;left=0;bottom=0;right=0;collapsible=0;dropTarget=0;fillColor=none;points=[[0,0.5],[1,0.5]];portConstraint=eastwest;fontSize=16;" vertex="1" parent="HOkc9EGTzNKBXb7nj3Id-40">
          <mxGeometry width="570" height="17" as="geometry" />
        </mxCell>
        <mxCell id="HOkc9EGTzNKBXb7nj3Id-42" value="" style="shape=partialRectangle;html=1;whiteSpace=wrap;connectable=0;strokeColor=inherit;overflow=hidden;fillColor=none;top=0;left=0;bottom=0;right=0;pointerEvents=1;fontSize=16;" vertex="1" parent="HOkc9EGTzNKBXb7nj3Id-41">
          <mxGeometry width="190" height="17" as="geometry">
            <mxRectangle width="190" height="17" as="alternateBounds" />
          </mxGeometry>
        </mxCell>
        <mxCell id="HOkc9EGTzNKBXb7nj3Id-43" value="" style="shape=partialRectangle;html=1;whiteSpace=wrap;connectable=0;strokeColor=inherit;overflow=hidden;fillColor=none;top=0;left=0;bottom=0;right=0;pointerEvents=1;fontSize=16;" vertex="1" parent="HOkc9EGTzNKBXb7nj3Id-41">
          <mxGeometry x="190" width="190" height="17" as="geometry">
            <mxRectangle width="190" height="17" as="alternateBounds" />
          </mxGeometry>
        </mxCell>
        <mxCell id="HOkc9EGTzNKBXb7nj3Id-44" value="" style="shape=partialRectangle;html=1;whiteSpace=wrap;connectable=0;strokeColor=inherit;overflow=hidden;fillColor=none;top=0;left=0;bottom=0;right=0;pointerEvents=1;fontSize=16;" vertex="1" parent="HOkc9EGTzNKBXb7nj3Id-41">
          <mxGeometry x="380" width="190" height="17" as="geometry">
            <mxRectangle width="190" height="17" as="alternateBounds" />
          </mxGeometry>
        </mxCell>
        <mxCell id="HOkc9EGTzNKBXb7nj3Id-45" value="" style="shape=tableRow;horizontal=0;startSize=0;swimlaneHead=0;swimlaneBody=0;strokeColor=inherit;top=0;left=0;bottom=0;right=0;collapsible=0;dropTarget=0;fillColor=none;points=[[0,0.5],[1,0.5]];portConstraint=eastwest;fontSize=16;" vertex="1" parent="HOkc9EGTzNKBXb7nj3Id-40">
          <mxGeometry y="17" width="570" height="16" as="geometry" />
        </mxCell>
        <mxCell id="HOkc9EGTzNKBXb7nj3Id-46" value="" style="shape=partialRectangle;html=1;whiteSpace=wrap;connectable=0;strokeColor=inherit;overflow=hidden;fillColor=none;top=0;left=0;bottom=0;right=0;pointerEvents=1;fontSize=16;" vertex="1" parent="HOkc9EGTzNKBXb7nj3Id-45">
          <mxGeometry width="190" height="16" as="geometry">
            <mxRectangle width="190" height="16" as="alternateBounds" />
          </mxGeometry>
        </mxCell>
        <mxCell id="HOkc9EGTzNKBXb7nj3Id-47" value="" style="shape=partialRectangle;html=1;whiteSpace=wrap;connectable=0;strokeColor=inherit;overflow=hidden;fillColor=none;top=0;left=0;bottom=0;right=0;pointerEvents=1;fontSize=16;" vertex="1" parent="HOkc9EGTzNKBXb7nj3Id-45">
          <mxGeometry x="190" width="190" height="16" as="geometry">
            <mxRectangle width="190" height="16" as="alternateBounds" />
          </mxGeometry>
        </mxCell>
        <mxCell id="HOkc9EGTzNKBXb7nj3Id-48" value="" style="shape=partialRectangle;html=1;whiteSpace=wrap;connectable=0;strokeColor=inherit;overflow=hidden;fillColor=none;top=0;left=0;bottom=0;right=0;pointerEvents=1;fontSize=16;" vertex="1" parent="HOkc9EGTzNKBXb7nj3Id-45">
          <mxGeometry x="380" width="190" height="16" as="geometry">
            <mxRectangle width="190" height="16" as="alternateBounds" />
          </mxGeometry>
        </mxCell>
        <mxCell id="HOkc9EGTzNKBXb7nj3Id-49" value="" style="shape=tableRow;horizontal=0;startSize=0;swimlaneHead=0;swimlaneBody=0;strokeColor=inherit;top=0;left=0;bottom=0;right=0;collapsible=0;dropTarget=0;fillColor=none;points=[[0,0.5],[1,0.5]];portConstraint=eastwest;fontSize=16;" vertex="1" parent="HOkc9EGTzNKBXb7nj3Id-40">
          <mxGeometry y="33" width="570" height="17" as="geometry" />
        </mxCell>
        <mxCell id="HOkc9EGTzNKBXb7nj3Id-50" value="" style="shape=partialRectangle;html=1;whiteSpace=wrap;connectable=0;strokeColor=inherit;overflow=hidden;fillColor=none;top=0;left=0;bottom=0;right=0;pointerEvents=1;fontSize=16;" vertex="1" parent="HOkc9EGTzNKBXb7nj3Id-49">
          <mxGeometry width="190" height="17" as="geometry">
            <mxRectangle width="190" height="17" as="alternateBounds" />
          </mxGeometry>
        </mxCell>
        <mxCell id="HOkc9EGTzNKBXb7nj3Id-51" value="" style="shape=partialRectangle;html=1;whiteSpace=wrap;connectable=0;strokeColor=inherit;overflow=hidden;fillColor=none;top=0;left=0;bottom=0;right=0;pointerEvents=1;fontSize=16;" vertex="1" parent="HOkc9EGTzNKBXb7nj3Id-49">
          <mxGeometry x="190" width="190" height="17" as="geometry">
            <mxRectangle width="190" height="17" as="alternateBounds" />
          </mxGeometry>
        </mxCell>
        <mxCell id="HOkc9EGTzNKBXb7nj3Id-52" value="" style="shape=partialRectangle;html=1;whiteSpace=wrap;connectable=0;strokeColor=inherit;overflow=hidden;fillColor=none;top=0;left=0;bottom=0;right=0;pointerEvents=1;fontSize=16;" vertex="1" parent="HOkc9EGTzNKBXb7nj3Id-49">
          <mxGeometry x="380" width="190" height="17" as="geometry">
            <mxRectangle width="190" height="17" as="alternateBounds" />
          </mxGeometry>
        </mxCell>
        <mxCell id="HOkc9EGTzNKBXb7nj3Id-53" value="" style="shape=tableRow;horizontal=0;startSize=0;swimlaneHead=0;swimlaneBody=0;strokeColor=inherit;top=0;left=0;bottom=0;right=0;collapsible=0;dropTarget=0;fillColor=none;points=[[0,0.5],[1,0.5]];portConstraint=eastwest;fontSize=16;" vertex="1" parent="HOkc9EGTzNKBXb7nj3Id-40">
          <mxGeometry y="50" width="570" height="17" as="geometry" />
        </mxCell>
        <mxCell id="HOkc9EGTzNKBXb7nj3Id-54" value="" style="shape=partialRectangle;html=1;whiteSpace=wrap;connectable=0;strokeColor=inherit;overflow=hidden;fillColor=none;top=0;left=0;bottom=0;right=0;pointerEvents=1;fontSize=16;" vertex="1" parent="HOkc9EGTzNKBXb7nj3Id-53">
          <mxGeometry width="190" height="17" as="geometry">
            <mxRectangle width="190" height="17" as="alternateBounds" />
          </mxGeometry>
        </mxCell>
        <mxCell id="HOkc9EGTzNKBXb7nj3Id-55" value="" style="shape=partialRectangle;html=1;whiteSpace=wrap;connectable=0;strokeColor=inherit;overflow=hidden;fillColor=none;top=0;left=0;bottom=0;right=0;pointerEvents=1;fontSize=16;" vertex="1" parent="HOkc9EGTzNKBXb7nj3Id-53">
          <mxGeometry x="190" width="190" height="17" as="geometry">
            <mxRectangle width="190" height="17" as="alternateBounds" />
          </mxGeometry>
        </mxCell>
        <mxCell id="HOkc9EGTzNKBXb7nj3Id-56" value="" style="shape=partialRectangle;html=1;whiteSpace=wrap;connectable=0;strokeColor=inherit;overflow=hidden;fillColor=none;top=0;left=0;bottom=0;right=0;pointerEvents=1;fontSize=16;" vertex="1" parent="HOkc9EGTzNKBXb7nj3Id-53">
          <mxGeometry x="380" width="190" height="17" as="geometry">
            <mxRectangle width="190" height="17" as="alternateBounds" />
          </mxGeometry>
        </mxCell>
        <mxCell id="HOkc9EGTzNKBXb7nj3Id-57" value="" style="shape=tableRow;horizontal=0;startSize=0;swimlaneHead=0;swimlaneBody=0;strokeColor=inherit;top=0;left=0;bottom=0;right=0;collapsible=0;dropTarget=0;fillColor=none;points=[[0,0.5],[1,0.5]];portConstraint=eastwest;fontSize=16;" vertex="1" parent="HOkc9EGTzNKBXb7nj3Id-40">
          <mxGeometry y="67" width="570" height="16" as="geometry" />
        </mxCell>
        <mxCell id="HOkc9EGTzNKBXb7nj3Id-58" value="" style="shape=partialRectangle;html=1;whiteSpace=wrap;connectable=0;strokeColor=inherit;overflow=hidden;fillColor=none;top=0;left=0;bottom=0;right=0;pointerEvents=1;fontSize=16;" vertex="1" parent="HOkc9EGTzNKBXb7nj3Id-57">
          <mxGeometry width="190" height="16" as="geometry">
            <mxRectangle width="190" height="16" as="alternateBounds" />
          </mxGeometry>
        </mxCell>
        <mxCell id="HOkc9EGTzNKBXb7nj3Id-59" value="" style="shape=partialRectangle;html=1;whiteSpace=wrap;connectable=0;strokeColor=inherit;overflow=hidden;fillColor=none;top=0;left=0;bottom=0;right=0;pointerEvents=1;fontSize=16;" vertex="1" parent="HOkc9EGTzNKBXb7nj3Id-57">
          <mxGeometry x="190" width="190" height="16" as="geometry">
            <mxRectangle width="190" height="16" as="alternateBounds" />
          </mxGeometry>
        </mxCell>
        <mxCell id="HOkc9EGTzNKBXb7nj3Id-60" value="" style="shape=partialRectangle;html=1;whiteSpace=wrap;connectable=0;strokeColor=inherit;overflow=hidden;fillColor=none;top=0;left=0;bottom=0;right=0;pointerEvents=1;fontSize=16;" vertex="1" parent="HOkc9EGTzNKBXb7nj3Id-57">
          <mxGeometry x="380" width="190" height="16" as="geometry">
            <mxRectangle width="190" height="16" as="alternateBounds" />
          </mxGeometry>
        </mxCell>
        <mxCell id="HOkc9EGTzNKBXb7nj3Id-61" value="" style="shape=tableRow;horizontal=0;startSize=0;swimlaneHead=0;swimlaneBody=0;strokeColor=inherit;top=0;left=0;bottom=0;right=0;collapsible=0;dropTarget=0;fillColor=none;points=[[0,0.5],[1,0.5]];portConstraint=eastwest;fontSize=16;" vertex="1" parent="HOkc9EGTzNKBXb7nj3Id-40">
          <mxGeometry y="83" width="570" height="17" as="geometry" />
        </mxCell>
        <mxCell id="HOkc9EGTzNKBXb7nj3Id-62" value="" style="shape=partialRectangle;html=1;whiteSpace=wrap;connectable=0;strokeColor=inherit;overflow=hidden;fillColor=none;top=0;left=0;bottom=0;right=0;pointerEvents=1;fontSize=16;" vertex="1" parent="HOkc9EGTzNKBXb7nj3Id-61">
          <mxGeometry width="190" height="17" as="geometry">
            <mxRectangle width="190" height="17" as="alternateBounds" />
          </mxGeometry>
        </mxCell>
        <mxCell id="HOkc9EGTzNKBXb7nj3Id-63" value="" style="shape=partialRectangle;html=1;whiteSpace=wrap;connectable=0;strokeColor=inherit;overflow=hidden;fillColor=none;top=0;left=0;bottom=0;right=0;pointerEvents=1;fontSize=16;" vertex="1" parent="HOkc9EGTzNKBXb7nj3Id-61">
          <mxGeometry x="190" width="190" height="17" as="geometry">
            <mxRectangle width="190" height="17" as="alternateBounds" />
          </mxGeometry>
        </mxCell>
        <mxCell id="HOkc9EGTzNKBXb7nj3Id-64" value="" style="shape=partialRectangle;html=1;whiteSpace=wrap;connectable=0;strokeColor=inherit;overflow=hidden;fillColor=none;top=0;left=0;bottom=0;right=0;pointerEvents=1;fontSize=16;" vertex="1" parent="HOkc9EGTzNKBXb7nj3Id-61">
          <mxGeometry x="380" width="190" height="17" as="geometry">
            <mxRectangle width="190" height="17" as="alternateBounds" />
          </mxGeometry>
        </mxCell>
        <mxCell id="HOkc9EGTzNKBXb7nj3Id-87" value="" style="group" vertex="1" connectable="0" parent="1">
          <mxGeometry x="-310" y="-570.0000000000002" width="640" height="490" as="geometry" />
        </mxCell>
        <mxCell id="HOkc9EGTzNKBXb7nj3Id-88" value="" style="rounded=0;whiteSpace=wrap;html=1;" vertex="1" parent="HOkc9EGTzNKBXb7nj3Id-87">
          <mxGeometry y="50" width="640" height="440" as="geometry" />
        </mxCell>
        <mxCell id="HOkc9EGTzNKBXb7nj3Id-89" value="&lt;span style=&quot;font-size: 18px;&quot;&gt;Anmeldung&lt;/span&gt;" style="text;html=1;strokeColor=none;fillColor=none;align=center;verticalAlign=middle;whiteSpace=wrap;rounded=0;fontStyle=1" vertex="1" parent="HOkc9EGTzNKBXb7nj3Id-87">
          <mxGeometry width="640" height="50" as="geometry" />
        </mxCell>
        <mxCell id="HOkc9EGTzNKBXb7nj3Id-91" value="E-Mail" style="rounded=0;whiteSpace=wrap;html=1;" vertex="1" parent="HOkc9EGTzNKBXb7nj3Id-87">
          <mxGeometry x="200" y="140.00000000000023" width="240" height="30" as="geometry" />
        </mxCell>
        <mxCell id="HOkc9EGTzNKBXb7nj3Id-92" value="Passwort" style="rounded=0;whiteSpace=wrap;html=1;" vertex="1" parent="HOkc9EGTzNKBXb7nj3Id-87">
          <mxGeometry x="200" y="180.00000000000023" width="240" height="30" as="geometry" />
        </mxCell>
        <mxCell id="HOkc9EGTzNKBXb7nj3Id-98" value="Login" style="rounded=1;whiteSpace=wrap;html=1;" vertex="1" parent="HOkc9EGTzNKBXb7nj3Id-87">
          <mxGeometry x="240" y="340" width="160" height="40" as="geometry" />
        </mxCell>
        <mxCell id="HOkc9EGTzNKBXb7nj3Id-90" style="edgeStyle=orthogonalEdgeStyle;rounded=0;orthogonalLoop=1;jettySize=auto;html=1;exitX=0;exitY=0.5;exitDx=0;exitDy=0;entryX=1;entryY=0.5;entryDx=0;entryDy=0;" edge="1" parent="1" source="HOkc9EGTzNKBXb7nj3Id-79" target="HOkc9EGTzNKBXb7nj3Id-88">
          <mxGeometry relative="1" as="geometry" />
        </mxCell>
        <mxCell id="HOkc9EGTzNKBXb7nj3Id-93" style="edgeStyle=orthogonalEdgeStyle;rounded=0;orthogonalLoop=1;jettySize=auto;html=1;exitX=0.5;exitY=1;exitDx=0;exitDy=0;entryX=0.5;entryY=0;entryDx=0;entryDy=0;" edge="1" parent="1" source="HOkc9EGTzNKBXb7nj3Id-88" target="HOkc9EGTzNKBXb7nj3Id-2">
          <mxGeometry relative="1" as="geometry" />
        </mxCell>
        <mxCell id="HOkc9EGTzNKBXb7nj3Id-95" value="Wenn sich eine&lt;br&gt;Firma anmeldet" style="edgeLabel;html=1;align=center;verticalAlign=middle;resizable=0;points=[];" vertex="1" connectable="0" parent="HOkc9EGTzNKBXb7nj3Id-93">
          <mxGeometry x="0.1097" y="4" relative="1" as="geometry">
            <mxPoint x="-29" y="-9" as="offset" />
          </mxGeometry>
        </mxCell>
        <mxCell id="HOkc9EGTzNKBXb7nj3Id-96" style="edgeStyle=orthogonalEdgeStyle;rounded=0;orthogonalLoop=1;jettySize=auto;html=1;exitX=0.5;exitY=1;exitDx=0;exitDy=0;entryX=0.5;entryY=0;entryDx=0;entryDy=0;" edge="1" parent="1" source="HOkc9EGTzNKBXb7nj3Id-88" target="HOkc9EGTzNKBXb7nj3Id-6">
          <mxGeometry relative="1" as="geometry" />
        </mxCell>
        <mxCell id="HOkc9EGTzNKBXb7nj3Id-97" value="Wenn sich das Organisationsteam&lt;br&gt;Ã¼ber whitelist-accounts anmeldet" style="edgeLabel;html=1;align=center;verticalAlign=middle;resizable=0;points=[];" vertex="1" connectable="0" parent="HOkc9EGTzNKBXb7nj3Id-96">
          <mxGeometry x="0.4924" y="1" relative="1" as="geometry">
            <mxPoint as="offset" />
          </mxGeometry>
        </mxCell>
        <mxCell id="HOkc9EGTzNKBXb7nj3Id-100" value="" style="group" vertex="1" connectable="0" parent="1">
          <mxGeometry x="-650" y="-1190.0000000000002" width="640" height="490" as="geometry" />
        </mxCell>
        <mxCell id="HOkc9EGTzNKBXb7nj3Id-101" value="Die Gastfirma gibt hier Anmeldeinformationen.&lt;br&gt;Diese Anmeldeinformationen werden in die regulÃ¤re Teilnahmeanmeldungstabelle geschrieben.&lt;br&gt;&lt;br&gt;Die Anmeldeinformationen werden allerdings nicht als neuen Nutzeraccount angelegt, sondern lediglich&lt;br&gt;zur Teilnahme am Marketplace GSO genutzt." style="rounded=0;whiteSpace=wrap;html=1;" vertex="1" parent="HOkc9EGTzNKBXb7nj3Id-100">
          <mxGeometry y="50" width="640" height="440" as="geometry" />
        </mxCell>
        <mxCell id="HOkc9EGTzNKBXb7nj3Id-102" value="&lt;span style=&quot;font-size: 18px;&quot;&gt;Gastanmeldung&lt;/span&gt;" style="text;html=1;strokeColor=none;fillColor=none;align=center;verticalAlign=middle;whiteSpace=wrap;rounded=0;fontStyle=1" vertex="1" parent="HOkc9EGTzNKBXb7nj3Id-100">
          <mxGeometry width="640" height="50" as="geometry" />
        </mxCell>
        <mxCell id="HOkc9EGTzNKBXb7nj3Id-103" style="edgeStyle=orthogonalEdgeStyle;rounded=0;orthogonalLoop=1;jettySize=auto;html=1;exitX=0;exitY=0.5;exitDx=0;exitDy=0;entryX=1;entryY=0.5;entryDx=0;entryDy=0;" edge="1" parent="1" source="HOkc9EGTzNKBXb7nj3Id-99" target="HOkc9EGTzNKBXb7nj3Id-101">
          <mxGeometry relative="1" as="geometry">
            <Array as="points">
              <mxPoint x="50" y="-1000" />
              <mxPoint x="50" y="-920" />
            </Array>
          </mxGeometry>
        </mxCell>
        <mxCell id="HOkc9EGTzNKBXb7nj3Id-106" value="" style="group" vertex="1" connectable="0" parent="1">
          <mxGeometry x="-1890" y="229.99999999999977" width="640" height="490" as="geometry" />
        </mxCell>
        <mxCell id="HOkc9EGTzNKBXb7nj3Id-107" value="Sind Sie sicher, dass Sie die Teilnahmeanfrage mit den folgenden Anmeldeinformationen&lt;br&gt;zum Marketplace GSO senden mÃ¶chten?" style="rounded=0;whiteSpace=wrap;html=1;" vertex="1" parent="HOkc9EGTzNKBXb7nj3Id-106">
          <mxGeometry y="50" width="640" height="440" as="geometry" />
        </mxCell>
        <mxCell id="HOkc9EGTzNKBXb7nj3Id-108" value="&lt;span style=&quot;font-size: 18px;&quot;&gt;BestÃ¤tigungsseite zur ÃberprÃ¼fung auf Datenkorrektheit&lt;/span&gt;" style="text;html=1;strokeColor=none;fillColor=none;align=center;verticalAlign=middle;whiteSpace=wrap;rounded=0;fontStyle=1" vertex="1" parent="HOkc9EGTzNKBXb7nj3Id-106">
          <mxGeometry width="640" height="50" as="geometry" />
        </mxCell>
        <mxCell id="HOkc9EGTzNKBXb7nj3Id-109" style="edgeStyle=orthogonalEdgeStyle;rounded=0;orthogonalLoop=1;jettySize=auto;html=1;exitX=0;exitY=0.5;exitDx=0;exitDy=0;entryX=0.5;entryY=0;entryDx=0;entryDy=0;" edge="1" parent="1" source="HOkc9EGTzNKBXb7nj3Id-101" target="HOkc9EGTzNKBXb7nj3Id-108">
          <mxGeometry relative="1" as="geometry" />
        </mxCell>
        <mxCell id="HOkc9EGTzNKBXb7nj3Id-110" value="Weiterleitung an BestÃ¤tigungsseite" style="edgeLabel;html=1;align=center;verticalAlign=middle;resizable=0;points=[];" vertex="1" connectable="0" parent="HOkc9EGTzNKBXb7nj3Id-109">
          <mxGeometry x="-0.5397" y="-2" relative="1" as="geometry">
            <mxPoint as="offset" />
          </mxGeometry>
        </mxCell>
        <mxCell id="HOkc9EGTzNKBXb7nj3Id-111" style="edgeStyle=orthogonalEdgeStyle;rounded=0;orthogonalLoop=1;jettySize=auto;html=1;exitX=0;exitY=0.5;exitDx=0;exitDy=0;entryX=1;entryY=0.5;entryDx=0;entryDy=0;" edge="1" parent="1" source="HOkc9EGTzNKBXb7nj3Id-105" target="HOkc9EGTzNKBXb7nj3Id-107">
          <mxGeometry relative="1" as="geometry" />
        </mxCell>
        <mxCell id="HOkc9EGTzNKBXb7nj3Id-112" value="Weiterleitung an&lt;br&gt;BestÃ¤tigungsseite" style="edgeLabel;html=1;align=center;verticalAlign=middle;resizable=0;points=[];" vertex="1" connectable="0" parent="HOkc9EGTzNKBXb7nj3Id-111">
          <mxGeometry x="0.7389" y="3" relative="1" as="geometry">
            <mxPoint x="48" y="-3" as="offset" />
          </mxGeometry>
        </mxCell>
        <mxCell id="HOkc9EGTzNKBXb7nj3Id-114" value="Vielen Dank fÃ¼r Ihre Anmeldung!" style="rounded=0;whiteSpace=wrap;html=1;" vertex="1" parent="1">
          <mxGeometry x="-1689.99" y="900" width="239.99" height="120" as="geometry" />
        </mxCell>
        <mxCell id="HOkc9EGTzNKBXb7nj3Id-113" style="edgeStyle=orthogonalEdgeStyle;rounded=0;orthogonalLoop=1;jettySize=auto;html=1;exitX=0.5;exitY=1;exitDx=0;exitDy=0;" edge="1" parent="1" source="HOkc9EGTzNKBXb7nj3Id-107" target="HOkc9EGTzNKBXb7nj3Id-114">
          <mxGeometry relative="1" as="geometry">
            <mxPoint x="-1570.0769230769233" y="930" as="targetPoint" />
          </mxGeometry>
        </mxCell>
        <mxCell id="HOkc9EGTzNKBXb7nj3Id-115" value="" style="group" vertex="1" connectable="0" parent="1">
          <mxGeometry x="-1020" y="769.9999999999998" width="640" height="490" as="geometry" />
        </mxCell>
        <mxCell id="HOkc9EGTzNKBXb7nj3Id-116" value="" style="rounded=0;whiteSpace=wrap;html=1;" vertex="1" parent="HOkc9EGTzNKBXb7nj3Id-115">
          <mxGeometry y="50" width="640" height="440" as="geometry" />
        </mxCell>
        <mxCell id="HOkc9EGTzNKBXb7nj3Id-117" value="&lt;font style=&quot;font-size: 18px;&quot;&gt;Bearbeitung der Accountdaten&lt;/font&gt;" style="text;html=1;strokeColor=none;fillColor=none;align=center;verticalAlign=middle;whiteSpace=wrap;rounded=0;fontStyle=1" vertex="1" parent="HOkc9EGTzNKBXb7nj3Id-115">
          <mxGeometry width="640" height="50" as="geometry" />
        </mxCell>
        <mxCell id="HOkc9EGTzNKBXb7nj3Id-118" style="edgeStyle=orthogonalEdgeStyle;rounded=0;orthogonalLoop=1;jettySize=auto;html=1;exitX=1;exitY=0.5;exitDx=0;exitDy=0;entryX=0.5;entryY=0;entryDx=0;entryDy=0;" edge="1" parent="1" source="HOkc9EGTzNKBXb7nj3Id-104" target="HOkc9EGTzNKBXb7nj3Id-117">
          <mxGeometry relative="1" as="geometry" />
        </mxCell>
        <mxCell id="HOkc9EGTzNKBXb7nj3Id-119" style="edgeStyle=orthogonalEdgeStyle;rounded=0;orthogonalLoop=1;jettySize=auto;html=1;exitX=1;exitY=0.5;exitDx=0;exitDy=0;entryX=1;entryY=0.5;entryDx=0;entryDy=0;" edge="1" parent="1" source="HOkc9EGTzNKBXb7nj3Id-116" target="HOkc9EGTzNKBXb7nj3Id-1">
          <mxGeometry relative="1" as="geometry">
            <Array as="points">
              <mxPoint x="-310" y="1040" />
              <mxPoint x="-310" y="500" />
            </Array>
          </mxGeometry>
        </mxCell>
        <mxCell id="HOkc9EGTzNKBXb7nj3Id-120" value="ZurÃ¼ck" style="edgeLabel;html=1;align=center;verticalAlign=middle;resizable=0;points=[];" vertex="1" connectable="0" parent="HOkc9EGTzNKBXb7nj3Id-119">
          <mxGeometry x="-0.0736" y="-1" relative="1" as="geometry">
            <mxPoint as="offset" />
          </mxGeometry>
        </mxCell>
      </root>
    </mxGraphModel>
  </diagram>
</mxfile>
